<svg width="17" height="17" viewBox="0 0 17 17" fill="none" xmlns="http://www.w3.org/2000/svg">
<path d="M10.9791 7.79167C10.9791 9.16088 9.86919 10.2708 8.49998 10.2708C7.13077 10.2708 6.02081 9.16088 6.02081 7.79167C6.02081 6.42246 7.13077 5.3125 8.49998 5.3125C9.86919 5.3125 10.9791 6.42246 10.9791 7.79167Z" stroke="#141B34" stroke-width="1.0625"/>
<path d="M8.5 1.41675C11.95 1.41675 14.875 4.27344 14.875 7.73919C14.875 11.2601 11.9023 13.7309 9.15662 15.4111C8.95652 15.5241 8.73021 15.5834 8.5 15.5834C8.26979 15.5834 8.04348 15.5241 7.84337 15.4111C5.10276 13.7145 2.125 11.2723 2.125 7.73919C2.125 4.27344 5.05002 1.41675 8.5 1.41675Z" stroke="#141B34" stroke-width="1.0625"/>
</svg>
