<svg width="19" height="18" viewBox="0 0 19 18" fill="none" xmlns="http://www.w3.org/2000/svg">
<mask id="mask0_2055_678" style="mask-type:alpha" maskUnits="userSpaceOnUse" x="0" y="0" width="19" height="18">
<rect x="0.333496" width="18" height="18" fill="#D9D9D9"/>
</mask>
<g mask="url(#mask0_2055_678)">
<path d="M8.2835 12.45L13.571 7.1625L12.521 6.1125L8.2835 10.35L6.146 8.2125L5.096 9.2625L8.2835 12.45ZM9.3335 16.5C8.296 16.5 7.321 16.3031 6.4085 15.9094C5.496 15.5156 4.70225 14.9813 4.02725 14.3063C3.35225 13.6313 2.81787 12.8375 2.42412 11.925C2.03037 11.0125 1.8335 10.0375 1.8335 9C1.8335 7.9625 2.03037 6.9875 2.42412 6.075C2.81787 5.1625 3.35225 4.36875 4.02725 3.69375C4.70225 3.01875 5.496 2.48438 6.4085 2.09063C7.321 1.69687 8.296 1.5 9.3335 1.5C10.371 1.5 11.346 1.69687 12.2585 2.09063C13.171 2.48438 13.9647 3.01875 14.6397 3.69375C15.3147 4.36875 15.8491 5.1625 16.2429 6.075C16.6366 6.9875 16.8335 7.9625 16.8335 9C16.8335 10.0375 16.6366 11.0125 16.2429 11.925C15.8491 12.8375 15.3147 13.6313 14.6397 14.3063C13.9647 14.9813 13.171 15.5156 12.2585 15.9094C11.346 16.3031 10.371 16.5 9.3335 16.5Z" fill="url(#paint0_linear_2055_678)"/>
</g>
<defs>
<linearGradient id="paint0_linear_2055_678" x1="1.80476" y1="16.5" x2="16.8048" y2="16.5" gradientUnits="userSpaceOnUse">
<stop stop-color="#0F00D4"/>
<stop offset="1" stop-color="#B300C8"/>
</linearGradient>
</defs>
</svg>
