<svg width="16" height="16" viewBox="0 0 16 16" fill="none" xmlns="http://www.w3.org/2000/svg">
<path d="M6.6165 11.45L11.904 6.1625L10.854 5.1125L6.6165 9.35L4.479 7.2125L3.429 8.2625L6.6165 11.45ZM7.6665 15.5C6.629 15.5 5.654 15.3031 4.7415 14.9094C3.829 14.5156 3.03525 13.9813 2.36025 13.3063C1.68525 12.6313 1.15088 11.8375 0.757129 10.925C0.363379 10.0125 0.166504 9.0375 0.166504 8C0.166504 6.9625 0.363379 5.9875 0.757129 5.075C1.15088 4.1625 1.68525 3.36875 2.36025 2.69375C3.03525 2.01875 3.829 1.48438 4.7415 1.09063C5.654 0.696875 6.629 0.5 7.6665 0.5C8.704 0.5 9.679 0.696875 10.5915 1.09063C11.504 1.48438 12.2978 2.01875 12.9728 2.69375C13.6478 3.36875 14.1821 4.1625 14.5759 5.075C14.9696 5.9875 15.1665 6.9625 15.1665 8C15.1665 9.0375 14.9696 10.0125 14.5759 10.925C14.1821 11.8375 13.6478 12.6313 12.9728 13.3063C12.2978 13.9813 11.504 14.5156 10.5915 14.9094C9.679 15.3031 8.704 15.5 7.6665 15.5ZM7.6665 14C9.3415 14 10.7603 13.4187 11.9228 12.2563C13.0853 11.0938 13.6665 9.675 13.6665 8C13.6665 6.325 13.0853 4.90625 11.9228 3.74375C10.7603 2.58125 9.3415 2 7.6665 2C5.9915 2 4.57275 2.58125 3.41025 3.74375C2.24775 4.90625 1.6665 6.325 1.6665 8C1.6665 9.675 2.24775 11.0938 3.41025 12.2563C4.57275 13.4187 5.9915 14 7.6665 14Z" fill="#9CA3AF"/>
</svg>
