<svg width="20" height="21" viewBox="0 0 20 21" fill="none" xmlns="http://www.w3.org/2000/svg">
<path d="M11.7284 3.73796C12.3494 3.06515 12.6599 2.72875 12.9898 2.53252C13.7859 2.05905 14.7662 2.04432 15.5757 2.49368C15.9111 2.67991 16.2311 3.00685 16.8712 3.66071C17.5112 4.31458 17.8313 4.64151 18.0136 4.98419C18.4535 5.81101 18.4391 6.81241 17.9756 7.62567C17.7835 7.96272 17.4542 8.2799 16.7956 8.91425L8.95916 16.462C7.71106 17.6642 7.08699 18.2652 6.30704 18.5698C5.52709 18.8745 4.66966 18.8521 2.95479 18.8072L2.72148 18.8012C2.19942 18.7875 1.93838 18.7807 1.78665 18.6084C1.63491 18.4362 1.65563 18.1703 1.69706 17.6386L1.71956 17.3498C1.83617 15.853 1.89447 15.1047 2.18675 14.4319C2.47903 13.7592 2.98319 13.213 3.99152 12.1205L11.7284 3.73796Z" stroke="black" stroke-width="1.25" stroke-linejoin="round"/>
<path d="M10.833 3.83325L16.6663 9.66659" stroke="black" stroke-width="1.25" stroke-linejoin="round"/>
<path d="M11.667 18.8333H18.3337" stroke="black" stroke-width="1.25" stroke-linecap="round" stroke-linejoin="round"/>
</svg>
