<svg width="18" height="18" viewBox="0 0 18 18" fill="none" xmlns="http://www.w3.org/2000/svg">
<g clip-path="url(#clip0_87_473)">
<path d="M12.5798 0.00900789C12.5415 -0.0337421 11.1634 0.0258829 9.96416 1.32751C8.76491 2.62801 8.94941 4.11976 8.97641 4.15801C9.00341 4.19626 10.6864 4.25588 11.7608 2.74276C12.8352 1.22963 12.618 0.0528829 12.5798 0.00900789ZM16.308 13.2086C16.254 13.1006 13.6924 11.8204 13.9309 9.35888C14.1694 6.89738 15.8153 6.22126 15.8412 6.14813C15.867 6.07501 15.1695 5.25938 14.4304 4.84651C13.8876 4.5557 13.2871 4.38894 12.672 4.35826C12.5505 4.35488 12.1287 4.25138 11.2613 4.48876C10.6898 4.64513 9.40166 5.15138 9.04729 5.17163C8.69179 5.19188 7.63429 4.58438 6.49691 4.42351C5.76904 4.28288 4.99729 4.57088 4.44491 4.79251C3.89366 5.01301 2.84516 5.64076 2.11166 7.30913C1.37816 8.97638 1.76179 11.6179 2.03629 12.4391C2.31079 13.2604 2.73941 14.6036 3.46841 15.5846C4.11641 16.6916 4.97591 17.46 5.33479 17.721C5.69366 17.982 6.70616 18.1553 7.40816 17.7964C7.97291 17.4499 8.99216 17.2508 9.39491 17.2654C9.79654 17.28 10.5885 17.4386 11.3997 17.8718C12.042 18.0934 12.6495 18.0011 13.2582 17.7536C13.8668 17.505 14.7477 16.5623 15.7759 14.6509C16.1659 13.7621 16.3433 13.2814 16.308 13.2086Z" fill="black"/>
<path d="M12.5798 0.00900789C12.5415 -0.0337421 11.1634 0.0258829 9.96416 1.32751C8.76491 2.62801 8.94941 4.11976 8.97641 4.15801C9.00341 4.19626 10.6864 4.25588 11.7608 2.74276C12.8352 1.22963 12.618 0.0528829 12.5798 0.00900789ZM16.308 13.2086C16.254 13.1006 13.6924 11.8204 13.9309 9.35888C14.1694 6.89738 15.8153 6.22126 15.8412 6.14813C15.867 6.07501 15.1695 5.25938 14.4304 4.84651C13.8876 4.5557 13.2871 4.38894 12.672 4.35826C12.5505 4.35488 12.1287 4.25138 11.2613 4.48876C10.6898 4.64513 9.40166 5.15138 9.04729 5.17163C8.69179 5.19188 7.63429 4.58438 6.49691 4.42351C5.76904 4.28288 4.99729 4.57088 4.44491 4.79251C3.89366 5.01301 2.84516 5.64076 2.11166 7.30913C1.37816 8.97638 1.76179 11.6179 2.03629 12.4391C2.31079 13.2604 2.73941 14.6036 3.46841 15.5846C4.11641 16.6916 4.97591 17.46 5.33479 17.721C5.69366 17.982 6.70616 18.1553 7.40816 17.7964C7.97291 17.4499 8.99216 17.2508 9.39491 17.2654C9.79654 17.28 10.5885 17.4386 11.3997 17.8718C12.042 18.0934 12.6495 18.0011 13.2582 17.7536C13.8668 17.505 14.7477 16.5623 15.7759 14.6509C16.1659 13.7621 16.3433 13.2814 16.308 13.2086Z" fill="black"/>
</g>
<defs>
<clipPath id="clip0_87_473">
<rect width="18" height="18" fill="white"/>
</clipPath>
</defs>
</svg>
