<svg width="19" height="18" viewBox="0 0 19 18" fill="none" xmlns="http://www.w3.org/2000/svg">
<path d="M18.3248 7.23723H17.5998V7.19988H9.49998V10.7998H14.5862C13.8442 12.8954 11.8503 14.3998 9.49998 14.3998C6.51788 14.3998 4.10006 11.982 4.10006 8.99986C4.10006 6.01775 6.51788 3.59994 9.49998 3.59994C10.8765 3.59994 12.1288 4.11923 13.0824 4.96747L15.628 2.42186C14.0206 0.923835 11.8705 0 9.49998 0C4.52981 0 0.500122 4.02969 0.500122 8.99986C0.500122 13.97 4.52981 17.9997 9.49998 17.9997C14.4701 17.9997 18.4998 13.97 18.4998 8.99986C18.4998 8.39642 18.4377 7.80738 18.3248 7.23723Z" fill="#FFC107"/>
<path d="M1.53784 4.81087L4.49474 6.97939C5.29483 4.99852 7.2325 3.59994 9.50001 3.59994C10.8765 3.59994 12.1289 4.11923 13.0824 4.96747L15.628 2.42186C14.0206 0.923835 11.8706 0 9.50001 0C6.04317 0 3.04532 1.95162 1.53784 4.81087Z" fill="#FF3D00"/>
<path d="M9.49992 17.9998C11.8246 17.9998 13.9368 17.1102 15.5339 15.6634L12.7484 13.3064C11.8145 14.0166 10.6733 14.4008 9.49992 14.3999C7.15905 14.3999 5.17143 12.9072 4.42265 10.8242L1.48779 13.0854C2.97727 16 6.00212 17.9998 9.49992 17.9998Z" fill="#4CAF50"/>
<path d="M18.3248 7.23706H17.5999V7.19971H9.5V10.7996H14.5863C14.2313 11.797 13.5919 12.6685 12.7471 13.3066L12.7485 13.3057L15.534 15.6627C15.3369 15.8418 18.4999 13.4996 18.4999 8.99968C18.4999 8.39624 18.4378 7.8072 18.3248 7.23706Z" fill="#1976D2"/>
</svg>
