<svg width="16" height="17" viewBox="0 0 16 17" fill="none" xmlns="http://www.w3.org/2000/svg">
<path d="M14.3623 7.8635C14.565 8.1477 14.6663 8.28983 14.6663 8.50016C14.6663 8.7105 14.565 8.85263 14.3623 9.13683C13.4516 10.4139 11.1258 13.1668 7.99967 13.1668C4.87353 13.1668 2.54774 10.4139 1.63703 9.13683C1.43435 8.85263 1.33301 8.7105 1.33301 8.50016C1.33301 8.28983 1.43435 8.1477 1.63703 7.8635C2.54774 6.58646 4.87353 3.8335 7.99967 3.8335C11.1258 3.8335 13.4516 6.58646 14.3623 7.8635Z" stroke="black"/>
<path d="M10 8.5C10 7.3954 9.1046 6.5 8 6.5C6.8954 6.5 6 7.3954 6 8.5C6 9.6046 6.8954 10.5 8 10.5C9.1046 10.5 10 9.6046 10 8.5Z" stroke="black"/>
</svg>
