<svg width="16" height="16" viewBox="0 0 16 16" fill="none" xmlns="http://www.w3.org/2000/svg">
<path fill-rule="evenodd" clip-rule="evenodd" d="M11.3243 5.16599C11.5548 5.39108 11.5592 5.7604 11.3341 5.99089L5.63748 11.8242C5.5227 11.9418 5.36367 12.0055 5.19948 11.9996C5.03529 11.9938 4.88117 11.919 4.77499 11.7937L2.30494 8.87699C2.09674 8.63114 2.12726 8.26305 2.37311 8.05485C2.61896 7.84665 2.98704 7.87716 3.19524 8.12301L5.25085 10.5503L10.4994 5.17577C10.7245 4.94528 11.0938 4.9409 11.3243 5.16599Z" fill="url(#paint0_linear_2803_206)"/>
<path fill-rule="evenodd" clip-rule="evenodd" d="M14.6576 5.16599C14.8881 5.39108 14.8924 5.7604 14.6673 5.99089L8.97073 11.8242C8.85595 11.9418 8.69692 12.0055 8.53273 11.9996C8.36854 11.9938 8.21442 11.919 8.10824 11.7937L5.6382 8.87699C5.42999 8.63114 5.46051 8.26305 5.70636 8.05485C5.95221 7.84665 6.32029 7.87716 6.52849 8.12301L8.5841 10.5503L13.8327 5.17577C14.0577 4.94528 14.4271 4.9409 14.6576 5.16599Z" fill="url(#paint1_linear_2803_206)"/>
<defs>
<linearGradient id="paint0_linear_2803_206" x1="2.14887" y1="12" x2="11.4822" y2="12" gradientUnits="userSpaceOnUse">
<stop stop-color="#0F00D4"/>
<stop offset="1" stop-color="#B300C8"/>
</linearGradient>
<linearGradient id="paint1_linear_2803_206" x1="5.48212" y1="12" x2="14.8155" y2="12" gradientUnits="userSpaceOnUse">
<stop stop-color="#0F00D4"/>
<stop offset="1" stop-color="#B300C8"/>
</linearGradient>
</defs>
</svg>
