<svg width="17" height="17" viewBox="0 0 17 17" fill="none" xmlns="http://www.w3.org/2000/svg">
<path d="M4.95831 6.02075L7.04224 7.25283C8.25716 7.97115 8.7428 7.97115 9.95773 7.25283L12.0416 6.02075" stroke="#141B34" stroke-width="1.0625" stroke-linecap="round" stroke-linejoin="round"/>
<path d="M1.42785 9.54508C1.47416 11.7165 1.49731 12.8022 2.29853 13.6064C3.09975 14.4108 4.21484 14.4387 6.44503 14.4948C7.81953 14.5293 9.18052 14.5293 10.555 14.4948C12.7852 14.4387 13.9003 14.4108 14.7015 13.6064C15.5027 12.8022 15.5259 11.7165 15.5722 9.54508C15.5871 8.84687 15.5871 8.15278 15.5722 7.45464C15.5259 5.2832 15.5027 4.19749 14.7015 3.39322C13.9003 2.58896 12.7852 2.56094 10.555 2.50491C9.18052 2.47037 7.81953 2.47037 6.44502 2.5049C4.21484 2.56093 3.09975 2.58895 2.29853 3.39322C1.49731 4.19748 1.47416 5.28319 1.42785 7.45457C1.41296 8.15278 1.41296 8.84687 1.42785 9.54508Z" stroke="#141B34" stroke-width="1.0625" stroke-linejoin="round"/>
</svg>
